<svg xmlns="http://www.w3.org/2000/svg" xmlns:xlink="http://www.w3.org/1999/xlink" id="Capa_1" width="100" height="100" x="0" y="0" enable-background="new 0 0 100 100" version="1.1" viewBox="0 0 100 100" xml:space="preserve"><g id="Capa_16"><g><g><rect width="6.417" height="5.557" y="81.805"/><rect width="14.236" height="5.557" x="7.778" y="81.805"/><rect width="14.236" height="5.555" y="74.891"/><rect width="6.417" height="5.558" y="67.973"/><rect width="14.236" height="5.558" x="7.778" y="67.973"/><rect width="14.236" height="5.557" y="61.055"/><rect width="6.417" height="5.555" y="54.139"/><rect width="14.236" height="5.555" x="7.778" y="54.139"/><rect width="14.236" height="5.557" y="47.222"/><rect width="6.417" height="5.557" y="40.305"/><rect width="14.236" height="5.557" x="7.778" y="40.305"/><rect width="14.236" height="5.555" y="33.389"/><rect width="6.417" height="5.555" y="26.472"/><rect width="14.236" height="5.555" x="7.778" y="26.472"/><rect width="14.236" height="5.557" y="19.554"/><rect width="6.417" height="5.555" y="12.639"/><rect width="14.236" height="5.555" x="7.778" y="12.639"/><rect width="14.234" height="5.557" x="85.766" y="81.805"/><rect width="14.234" height="5.555" x="77.945" y="74.891"/><rect width="6.458" height="5.555" x="93.542" y="74.891"/><rect width="14.234" height="5.558" x="85.766" y="67.973"/><rect width="14.234" height="5.557" x="77.945" y="61.055"/><rect width="6.458" height="5.557" x="93.542" y="61.055"/><rect width="14.234" height="5.555" x="85.766" y="54.139"/><rect width="14.234" height="5.557" x="77.945" y="47.222"/><rect width="6.458" height="5.557" x="93.542" y="47.222"/><rect width="14.234" height="5.557" x="85.766" y="40.305"/><rect width="14.234" height="5.555" x="77.945" y="33.389"/><rect width="6.458" height="5.555" x="93.542" y="33.389"/><rect width="14.234" height="5.555" x="85.766" y="26.472"/><rect width="14.235" height="5.557" x="62.348" y="19.554"/><rect width="14.234" height="5.557" x="77.945" y="19.554"/><rect width="6.458" height="5.557" x="93.542" y="19.554"/><rect width="14.235" height="5.555" x="70.167" y="12.639"/><rect width="14.234" height="5.555" x="85.766" y="12.639"/><rect width="14.235" height="5.557" x="15.598" y="19.554"/><polygon points="31.194 19.554 31.151 19.554 31.151 25.11 31.194 25.11 45.389 25.11 45.431 25.11 45.431 19.554 45.389 19.554"/><polygon points="46.792 19.554 46.749 19.554 46.749 25.11 46.792 25.11 60.986 25.11 61.027 25.11 61.027 19.554 60.986 19.554"/><polygon points="37.611 18.193 37.611 12.639 23.376 12.639 23.374 12.639 23.374 18.193 23.376 18.193"/><rect width="14.238" height="5.555" x="38.972" y="12.639"/><polygon points="68.809 18.193 68.809 12.639 68.807 12.639 54.568 12.639 54.568 18.193 68.807 18.193"/><rect width="6.543" height="5.557" x="23.376" y="40.305"/><rect width="14.235" height="5.555" x="15.598" y="33.389"/><rect width="14.235" height="5.557" x="15.598" y="47.222"/><rect width="6.543" height="5.555" x="23.376" y="54.139"/><rect width="14.235" height="5.557" x="15.598" y="61.055"/><rect width="6.543" height="5.558" x="23.376" y="67.973"/><rect width="14.235" height="5.555" x="15.598" y="74.891"/><rect width="6.543" height="5.557" x="23.376" y="81.805"/><rect width="14.235" height="5.557" x="70.167" y="81.805"/><rect width="6.502" height="5.555" x="70.081" y="74.891"/><rect width="14.235" height="5.558" x="70.167" y="67.973"/><rect width="6.502" height="5.557" x="70.081" y="61.055"/><rect width="14.235" height="5.555" x="70.167" y="54.139"/><rect width="6.502" height="5.557" x="70.081" y="47.222"/><rect width="14.235" height="5.557" x="70.167" y="40.305"/><rect width="6.502" height="5.555" x="70.081" y="33.389"/><rect width="14.235" height="5.555" x="70.167" y="26.472"/><rect width="6.543" height="5.555" x="23.376" y="26.472"/></g><path d="M31.976,27.36v60h36.051v-60H31.976z M62.079,58.658c-0.963,0-1.743-0.78-1.743-1.742s0.78-1.742,1.743-1.742 c0.961,0,1.741,0.78,1.741,1.742S63.04,58.658,62.079,58.658z"/></g></g></svg>