<svg xmlns="http://www.w3.org/2000/svg" xmlns:svg="http://www.w3.org/2000/svg" id="svg2" width="152" height="152" version="1.1"><metadata id="metadata8"/><path id="path3758" d="M 64.503041,73.223779 C 50.133504,70.368392 36.762625,64.631464 23.077304,55.449604 14.391086,49.621786 1.1417668e-6,36.60749 1.1417668e-6,34.580098 1.1417668e-6,32.86478 11.123275,23.158885 19.760449,17.337611 28.541844,11.419148 41.462227,5.4284293 51.824189,2.4708077 62.564845,-0.59490184 83.401471,-0.85083084 94.665991,1.9445981 109.82033,5.7053351 126.74507,15.372398 143.00972,29.557573 c 11.0857,9.668359 11.14459,9.885663 4.39065,16.2031 C 122.74644,68.821248 92.602852,78.807531 64.503041,73.223779 z M 102.04055,62.275054 c 4.02929,-1.2761 10.40872,-3.8716 14.17649,-5.767777 8.27343,-4.163684 22.97673,-14.956551 22.97673,-16.865931 0,-1.992819 -13.87198,-13.131005 -23.01795,-18.481737 C 100.79227,12.159669 91.428745,9.5578642 74.306462,9.5255452 58.966247,9.4965771 52.329961,11.008837 38.199797,17.75338 27.572042,22.826164 13.605406,32.314157 13.605406,34.461147 c 0,3.895421 21.421677,18.752632 35.048539,24.308243 13.136621,5.355744 20.189017,6.641968 34.025063,6.205506 8.679345,-0.273782 14.078465,-1.026662 19.361542,-2.699842 z M 67.906743,58.752759 c -6.301056,-2.251751 -10.4586,-5.919964 -13.072732,-11.534123 -3.165462,-6.798149 -3.14598,-12.29 0.06801,-19.193426 4.595256,-9.870176 15.215761,-14.501513 26.039168,-11.355059 6.026535,1.75196 12.295549,7.391153 14.417512,12.969027 1.38174,3.632134 1.38174,12.480272 0,16.112405 -2.048208,5.384006 -8.379534,11.19041 -14.032633,12.869204 -6.357733,1.888041 -8.447855,1.908596 -13.419375,0.131961 z m -0.340672,-29.65156 c 4.443812,-3.714571 5.814048,-6.782988 3.631406,-8.131936 -2.681498,-1.657258 -13.373578,7.417372 -12.235091,10.384223 0.999163,2.603789 3.612757,1.919599 8.603685,-2.252287 z" style="fill:#d0d0d0"/><g id="g3781" transform="matrix(1.1284265,0,0,1.1284265,51.976926,-12.277294)" style="stroke-width:10.63427734;stroke-miterlimit:4;stroke-dasharray:none"><g id="g3816" transform="matrix(0.45143886,0,0,0.45143886,22.951543,103.92401)" style="stroke-width:23.55640602;stroke-miterlimit:4;stroke-dasharray:none"><g id="Layer_3" display="none" style="stroke-width:23.55640602;stroke-miterlimit:4;stroke-dasharray:none;display:none"><rect id="rect3770" width="49.833" height="49.834" x="7.083" y="7.083" display="inline" style="fill:#d1d1d1;stroke-width:23.55640602;stroke-miterlimit:4;stroke-dasharray:none;display:inline"/></g><g id="child_1_" transform="matrix(2.4369868,0,0,2.4369868,-68.604633,-55.990806)" style="stroke-width:9.66620159;stroke-miterlimit:4;stroke-dasharray:none"><g id="g3799" style="stroke-width:9.66620159;stroke-linecap:round;stroke-miterlimit:4;stroke-dasharray:none"><g id="g3801" style="stroke-width:9.66620159;stroke-linecap:round;stroke-miterlimit:4;stroke-dasharray:none"><g id="g3832" transform="matrix(1.0405199,0,0,1.0405199,-12.106077,-2.2708504)"><line style="fill:none;stroke:#3bc43b;stroke-width:9.66620159;stroke-linecap:round;stroke-miterlimit:4;stroke-opacity:1;stroke-dasharray:none" id="line3783" x1="17.127" x2="39.065" y1="48.57" y2="37.664" stroke-miterlimit="10"/><line style="fill:none;stroke:#d42b2b;stroke-width:9.66620159;stroke-linecap:round;stroke-miterlimit:4;stroke-opacity:1;stroke-dasharray:none" id="line3793" x1="17.127" x2="47.988" y1="48.57" y2="54.396" stroke-miterlimit="10"/><line style="fill:none;stroke:#3030e9;stroke-width:9.66620159;stroke-linecap:round;stroke-miterlimit:4;stroke-opacity:1;stroke-dasharray:none" id="line3803" x1="16.5" x2="16.5" y1="12.389" y2="48.389" stroke-miterlimit="10"/><polygon id="polygon3807" points="12.089 17 16.012 2.365 19.934 17" transform="matrix(1.788071,0,0,1.4574098,-12.129699,-6.8123108)" style="fill:#3030e9;fill-opacity:1;stroke-width:6.63245296;stroke-linecap:round;stroke-miterlimit:4;stroke-dasharray:none"/><polygon id="polygon3807-3" points="12.089 17 16.012 2.365 19.934 17" transform="matrix(0.73678888,1.6292146,-1.32793,0.6005373,50.403058,0.82082759)" style="fill:#3bc43b;fill-opacity:1;stroke-width:6.63245296;stroke-linecap:round;stroke-miterlimit:4;stroke-dasharray:none"/><polygon id="polygon3807-3-6" points="19.934 17 12.089 17 16.012 2.365" transform="matrix(-0.33055847,1.7572504,-1.4322887,-0.26942948,73.66886,30.204557)" style="fill:#d42b2b;fill-opacity:1;stroke-width:6.63245296;stroke-linecap:round;stroke-miterlimit:4;stroke-dasharray:none"/></g></g></g></g></g></g></svg>