<svg xmlns="http://www.w3.org/2000/svg" xmlns:svg="http://www.w3.org/2000/svg" id="svg2" width="152" height="152" version="1.1"><metadata id="metadata8"/><text style="font-size:69.82582092px;font-style:normal;font-weight:400;line-height:125%;letter-spacing:0;word-spacing:0;fill:#cfcfcf;fill-opacity:1;stroke:none;font-family:Sans" id="text2987" x="13.215" y="140.769" xml:space="preserve"><tspan id="tspan2989" x="13.215" y="140.769" style="font-weight:700;fill:#cfcfcf;fill-opacity:1;-inkscape-font-specification:Sans Bold">VIS</tspan></text><path id="path3758" d="M 64.503038,73.223783 C 50.133508,70.368393 36.762628,64.631464 23.077308,55.449604 14.391088,49.621786 3.2417668e-6,36.60749 3.2417668e-6,34.580098 3.2417668e-6,32.86478 11.123277,23.158885 19.760448,17.337611 c 8.7814,-5.918463 21.70178,-11.909182 32.06374,-14.866804 10.74066,-3.065709 31.57728,-3.321638 42.8418,-0.526209 15.154342,3.760737 32.079082,13.4278 48.343732,27.612975 11.0857,9.668359 11.14459,9.885663 4.39065,16.2031 -24.65393,23.06057 -54.797522,33.04686 -82.897332,27.46311 z M 102.04055,62.275054 c 4.02929,-1.2761 10.40872,-3.8716 14.17649,-5.767777 8.27343,-4.163684 22.97673,-14.956551 22.97673,-16.865931 0,-1.992819 -13.87198,-13.131005 -23.01795,-18.481737 C 100.79227,12.159669 91.428748,9.557864 74.306458,9.525545 c -15.34021,-0.02897 -21.9765,1.483292 -36.10666,8.227835 -10.62775,5.072784 -24.59439,14.560777 -24.59439,16.707767 0,3.895421 21.42168,18.752632 35.04854,24.308243 13.13662,5.355744 20.18901,6.641968 34.02506,6.205506 8.67935,-0.273782 14.07847,-1.026662 19.361542,-2.699842 z M 67.906748,58.752759 c -6.30106,-2.251751 -10.4586,-5.919964 -13.07274,-11.534123 -3.16546,-6.798149 -3.14598,-12.29 0.068,-19.193426 4.59526,-9.870176 15.21576,-14.501513 26.03917,-11.355059 6.02654,1.75196 12.29555,7.391153 14.41751,12.969027 1.38174,3.632134 1.38174,12.480272 0,16.112405 -2.0482,5.384006 -8.37953,11.19041 -14.03263,12.869204 -6.35773,1.888041 -8.44785,1.908596 -13.41937,0.131961 z m -0.34068,-29.65156 c 4.44382,-3.714571 5.81405,-6.782988 3.63141,-8.131936 -2.6815,-1.657258 -13.37358,7.417372 -12.23509,10.384223 0.99916,2.603789 3.61276,1.919599 8.60368,-2.252287 z" style="fill:#d0d0d0"/></svg>