<svg xmlns="http://www.w3.org/2000/svg" xmlns:svg="http://www.w3.org/2000/svg" id="svg2" width="24" height="24" fill="#000" version="1.1" viewBox="0 0 24 24"><metadata id="metadata12"/><path id="path4" fill="none" d="M0 0h24v24H0z" style="fill:#fff"/><path id="path6" d="M9 16h6v-6h4l-7-7-7 7h4zm-4 2h14v2H5z" style="fill:#fff"/><path style="fill:#fff;fill-opacity:1;stroke:none" id="path2989" d="m 9.0508475,12.945763 0,-3.0000003 -1.9574388,0 -1.9574388,0 3.432015,-3.432015 L 12,3.0817326 l 3.432015,3.4320151 3.432016,3.432015 -1.957439,0 -1.957439,0 0,3.0000003 0,3 -2.949153,0 -2.9491525,0 0,-3 z"/><path style="fill:#fff;fill-opacity:1;stroke:none" id="path2991" d="m 5.0847458,18.99661 0,-0.915254 6.9152542,0 6.915254,0 0,0.915254 0,0.915254 -6.915254,0 -6.9152542,0 0,-0.915254 z"/><path style="fill:#fff;fill-opacity:1;stroke:none" id="path2993" d="m 9.0508475,12.945763 0,-3.0000003 -1.9065885,0 -1.9065886,0 L 8.6188353,6.564598 12,3.1834332 l 3.381165,3.3811648 3.381164,3.3811647 -1.906588,0 -1.906588,0 0,3.0000003 0,3 -2.949153,0 -2.9491525,0 0,-3 z"/><path style="fill:#fff;fill-opacity:1;stroke:none" id="path2995" d="m 9.0508475,12.945763 0,-3.0000003 -1.9065885,0 -1.9065886,0 L 8.6188353,6.564598 12,3.1834332 l 3.381165,3.3811648 3.381164,3.3811647 -1.906588,0 -1.906588,0 0,3.0000003 0,3 -2.949153,0 -2.9491525,0 0,-3 z"/></svg>