<svg xmlns="http://www.w3.org/2000/svg" xmlns:svg="http://www.w3.org/2000/svg" id="svg2" width="64" height="64" version="1.1" viewBox="0 0 64 64"><metadata id="metadata14"/><defs id="defs4"><path id="a" d="M 0,0 H 24 V 24 H 0 V 0 z"/></defs><path id="path10" d="m 62.343566,20.965976 c 0,3.034356 -2.482656,5.517011 -5.517012,5.517011 -0.496532,0 -0.965478,-0.05517 -1.406841,-0.193095 l -9.820282,9.792696 c 0.137926,0.441362 0.193097,0.937892 0.193097,1.434422 0,3.034356 -2.482656,5.517012 -5.517012,5.517012 -3.034357,0 -5.517012,-2.482656 -5.517012,-5.517012 0,-0.49653 0.05517,-0.99306 0.193096,-1.434422 L 27.91741,29.0484 c -0.441361,0.137926 -0.937893,0.193095 -1.434424,0.193095 -0.496531,0 -0.993062,-0.05517 -1.434423,-0.193095 l -12.5512,12.578786 c 0.137924,0.441361 0.193095,0.910306 0.193095,1.406837 0,3.034356 -2.482656,5.517012 -5.5170123,5.517012 -3.0343559,0 -5.5170114,-2.482656 -5.5170114,-5.517012 0,-3.034356 2.4826555,-5.517012 5.5170114,-5.517012 0.496531,0 0.965477,0.05517 1.406838,0.193096 L 21.15907,25.158905 c -0.137926,-0.441362 -0.193096,-0.937892 -0.193096,-1.434424 0,-3.034357 2.482656,-5.517011 5.517012,-5.517011 3.034356,0 5.517012,2.482654 5.517012,5.517011 0,0.496532 -0.05517,0.993062 -0.193095,1.434424 l 7.03419,7.034191 C 39.282453,32.055169 39.778984,32 40.275516,32 c 0.496531,0 0.993061,0.05517 1.434422,0.193096 l 9.792696,-9.820281 c -0.137924,-0.441361 -0.193095,-0.910308 -0.193095,-1.406838 0,-3.034357 2.482655,-5.517012 5.517015,-5.517012 3.034356,0 5.517012,2.482655 5.517012,5.517012 z" clip-path="none" style="fill:#d1d1d1;fill-opacity:1"/></svg>