<svg xmlns="http://www.w3.org/2000/svg" xmlns:svg="http://www.w3.org/2000/svg" id="svg2" width="100%" height="100%" x="0" y="0" enable-background="new 0 0 64 64" version="1.1" viewBox="0 0 64 64" xml:space="preserve"><metadata id="metadata85"/><g id="model" display="none"><rect id="rect5" width="24.375" height="17.375" x="19.812" y="5.5" fill="#E6E6E6" display="inline"/><rect id="rect7" width="24.375" height="17.375" x="2.125" y="40.688" fill="#E6E6E6" display="inline"/><rect id="rect9" width="24.375" height="17.375" x="37.125" y="40.688" fill="#E6E6E6" display="inline"/><line id="line11" x1="32" x2="14.312" y1="14.188" y2="49.375" fill="none" stroke="#E6E6E6" stroke-miterlimit="10" stroke-width="5" display="inline"/><line id="line13" x1="49.312" x2="32" y1="49.375" y2="14.188" fill="none" stroke="#E6E6E6" stroke-miterlimit="10" stroke-width="5" display="inline"/></g><g id="link"><g id="g3052" transform="translate(-39.050848,-1.8983054)"><rect style="fill:#b1b1b1;fill-opacity:1" id="rect16" width="24.375" height="17.375" x="59.05" y="7.617"/><line style="fill:none;stroke:#b1b1b1;stroke-width:5;stroke-miterlimit:10;stroke-opacity:1" id="line18" x1="88.55" x2="71.238" y1="51.492" y2="16.305" stroke-miterlimit="10"/><rect style="fill:#b1b1b1;fill-opacity:1" id="rect20" width="24.375" height="17.375" x="41.363" y="42.805"/><rect id="rect22" width="24.375" height="17.375" x="76.363" y="42.805" style="fill:#4d4d4d"/><line style="fill:none;stroke:#b1b1b1;stroke-width:5;stroke-miterlimit:10;stroke-opacity:1" id="line24" x1="71.238" x2="53.55" y1="16.305" y2="51.492" stroke-miterlimit="10"/></g></g><g id="joint" display="none"><g id="g27" display="inline"><circle id="circle29" cx="26.24" cy="32.489" r="10.957" fill="#E6E6E6"/><line id="line31" x1="48.717" x2="26.24" y1="4.688" y2="32.489" fill="none" stroke="#E6E6E6" stroke-miterlimit="10" stroke-width="7.004"/><line id="line33" x1="48.717" x2="26.24" y1="59.312" y2="32.489" fill="none" stroke="#E6E6E6" stroke-miterlimit="10" stroke-width="7.004"/></g></g><g id="collision" display="none"><g id="g36" display="inline"><g id="g38"><line id="line40" x1="64" x2="49.045" y1="32" y2="32" fill="none" stroke="#E6E6E6" stroke-miterlimit="10" stroke-width="6"/><g id="g42"><polygon id="polygon44" fill="#E6E6E6" points="34.218 32 55.112 23.463 50.154 32 55.112 40.535"/></g></g></g><g id="g46" display="inline"><g id="g48"><line id="line50" x1="0" x2="14.955" y1="32" y2="32" fill="none" stroke="#E6E6E6" stroke-miterlimit="10" stroke-width="6"/><g id="g52"><polygon id="polygon54" fill="#E6E6E6" points="29.782 32 8.888 40.537 13.846 32 8.888 23.465"/></g></g></g><line id="line56" x1="32" x2="32" y1="22.875" y2="2.745" fill="none" stroke="#E6E6E6" stroke-linecap="round" stroke-miterlimit="10" stroke-width="3" display="inline"/><line id="line58" x1="26.966" x2="15.034" y1="22.404" y2="10.471" fill="none" stroke="#E6E6E6" stroke-linecap="round" stroke-miterlimit="10" stroke-width="3" display="inline"/><line id="line60" x1="37.034" x2="48.966" y1="22.404" y2="10.471" fill="none" stroke="#E6E6E6" stroke-linecap="round" stroke-miterlimit="10" stroke-width="3" display="inline"/><line id="line62" x1="32" x2="32" y1="41.399" y2="61.529" fill="none" stroke="#E6E6E6" stroke-linecap="round" stroke-miterlimit="10" stroke-width="3" display="inline"/><line id="line64" x1="37.034" x2="48.966" y1="41.87" y2="53.803" fill="none" stroke="#E6E6E6" stroke-linecap="round" stroke-miterlimit="10" stroke-width="3" display="inline"/><line id="line66" x1="26.966" x2="15.034" y1="41.87" y2="53.803" fill="none" stroke="#E6E6E6" stroke-linecap="round" stroke-miterlimit="10" stroke-width="3" display="inline"/></g><g id="visual" display="none"><g id="g69" display="inline"><path id="path71" fill="#E6E6E6" d="M15.272,41.268c-0.138-0.106-0.271-0.222-0.398-0.348l-3.127-3.127c-1.427-1.427-1.528-3.659-0.226-4.961 l21.453-21.453c1.302-1.302,3.534-1.2,4.961,0.226l3.127,3.127c0.134,0.134,0.256,0.275,0.367,0.422"/><path id="path73" fill="#E6E6E6" d="M31.858,31.716"/><path id="path75" fill="#E6E6E6" d="M32.506,32.365"/><path id="path77" fill="#E6E6E6" d="M12.055,6.257c-1.432-1.432-3.755-1.432-5.187,0L5.691,7.433c-1.432,1.432-1.432,3.755,0,5.187 l13.197,13.197c1.432,1.432,3.755,1.432,5.187,0l1.177-1.177c1.432-1.432,1.432-3.755,0-5.187L12.055,6.257z M11.277,12.056 c-1.025,1.025-2.688,1.025-3.713,0s-1.025-2.688,0-3.713c1.025-1.025,2.688-1.025,3.713,0S12.303,11.03,11.277,12.056z"/><polyline id="polyline79" fill="#E6E6E6" points="16.533 43.261 43.291 16.503 59.383 34.352 56.747 36.988 51.445 32.564 56.015 37.72 42.689 51.046 36.137 46.251 41.005 52.73 40.346 53.389 35.561 50.069 39.101 54.634 34.918 58.817"/></g></g></svg>