<svg xmlns="http://www.w3.org/2000/svg" xmlns:xlink="http://www.w3.org/1999/xlink" width="64" height="64" x="0" y="0" enable-background="new 0 0 64 64" version="1.1" viewBox="0 0 64 64" xml:space="preserve"><g id="original" display="none"><path fill="none" stroke="#999" stroke-width="2.61" d="M43,15.367" display="inline"/><path fill="none" stroke="#999" stroke-width="2.61" d="M29.281,2.981" display="inline"/><path fill="none" stroke="#999" stroke-width="2" d="M43,49" display="inline"/><line x1="43" x2="43" y1="11" y2="15" fill="none" stroke="#999" stroke-width="2" display="inline"/><line x1="8" x2="34" y1="3" y2="3" fill="none" stroke="#999" stroke-width="2" display="inline"/><line x1="33.25" x2="43.25" y1="2.75" y2="11.688" fill="none" stroke="#999" stroke-width="1.998" display="inline"/><line x1="22" x2="8" y1="49" y2="49" fill="none" stroke="#999" stroke-width="2" display="inline"/><path fill="none" stroke="#999" stroke-width="2" d="M44,49" display="inline"/><line x1="9" x2="9" y1="49" y2="3" fill="none" stroke="#999" stroke-width="2" display="inline"/><line x1="33" x2="33" y1="3" y2="12" fill="none" stroke="#999" stroke-width="2" display="inline"/><line x1="32" x2="43" y1="12" y2="12" fill="none" stroke="#999" stroke-width="2" display="inline"/><path fill="none" stroke="#999" stroke-width="2" d="M39,21" display="inline"/><line x1="12" x2="22" y1="21" y2="21" fill="none" stroke="#999" stroke-width="2" display="inline"/><path fill="none" stroke="#999" stroke-width="2" d="M39,28" display="inline"/><line x1="12" x2="22" y1="28" y2="28" fill="none" stroke="#999" stroke-width="2" display="inline"/><path fill="none" stroke="#999" stroke-width="2" d="M39,35" display="inline"/><line x1="12" x2="22" y1="35" y2="35" fill="none" stroke="#999" stroke-width="2" display="inline"/><path fill="none" stroke="#999" stroke-width="2" d="M39,43" display="inline"/><line x1="12" x2="22" y1="43" y2="43" fill="none" stroke="#999" stroke-width="2" display="inline"/><g display="inline"><g><path fill="#FFF" stroke="#999" stroke-width="2.61" d="M56,27.378"/><path fill="#FFF" stroke="#999" stroke-width="2.61" d="M42.281,14.992"/><line x1="21" x2="47" y1="15" y2="15" fill="#FFF" stroke="#999" stroke-width="2"/><line x1="56" x2="56" y1="23" y2="61" fill="#FFF" stroke="#999" stroke-width="2"/><line x1="57" x2="21" y1="61" y2="61" fill="#FFF" stroke="#999" stroke-width="2"/><line x1="22" x2="22" y1="61" y2="15" fill="#FFF" stroke="#999" stroke-width="2"/><line x1="46" x2="46" y1="15" y2="24" fill="#FFF" stroke="#999" stroke-width="2"/><line x1="45" x2="56" y1="24" y2="24" fill="#FFF" stroke="#999" stroke-width="2"/></g><line x1="25" x2="52" y1="33" y2="33" fill="#FFF" stroke="#999" stroke-width="2"/><line x1="25" x2="52" y1="40" y2="40" fill="#FFF" stroke="#999" stroke-width="2"/><line x1="25" x2="52" y1="47" y2="47" fill="#FFF" stroke="#999" stroke-width="2"/><line x1="25" x2="52" y1="55" y2="55" fill="#FFF" stroke="#999" stroke-width="2"/><line x1="46.25" x2="56.25" y1="14.75" y2="23.688" fill="none" stroke="#999" stroke-width="1.998"/></g></g><g id="Layer_3"><polyline fill="none" stroke="#E6E6E6" stroke-width="2" points="48 45 55 45 44.707 55.713 38.525 49.6"/><line x1="48.989" x2="48.989" y1="54.021" y2="54.021" fill="none" stroke="#E6E6E6"/><path fill="none" stroke="#E6E6E6" d="M44.938,50"/><path fill="none" stroke="#E6E6E6" d="M47.707,53.412"/></g><g id="original_copy"><path fill="none" stroke="#999" stroke-width="2" d="M43.5,41.265"/><path fill="none" stroke="#999" stroke-width="2" d="M44.5,41.265"/><path fill="none" stroke="#999" stroke-width="2" d="M39.5,27.265"/><path fill="none" stroke="#999" stroke-width="2" d="M39.5,35.265"/><line x1="26" x2="36" y1="40" y2="40" fill="#D1D1D1" stroke="#FFF" stroke-width="2"/><path fill="none" stroke="#999" stroke-width="2" d="M39.5,20.265"/><polygon fill="#D1D1D1" stroke="#E6E6E6" stroke-width="2" points="49 50 14 50 14 8 39.361 8 40.059 8 49 14.319"/><g><path fill="#666" d="M18.36,26.061v-10.83h2.07v9.09h4.71v1.74H18.36z"/><path fill="#666" d="M30.525,26.211c-2.955,0-4.544-2.025-4.544-5.564c0-3.54,1.59-5.565,4.544-5.565s4.545,2.025,4.545,5.565 C35.07,24.186,33.479,26.211,30.525,26.211z M30.525,16.821c-1.695,0-2.475,1.29-2.475,3.825c-0.03,2.535,0.765,3.825,2.475,3.825 c1.695,0,2.475-1.29,2.475-3.825C33,18.111,32.22,16.821,30.525,16.821z"/><path fill="#666" d="M42.51,18.352c-0.495-1.08-1.095-1.53-2.175-1.53c-1.53,0-2.28,1.53-2.28,3.93 c0,2.28,0.855,3.72,2.295,3.72c1.351,0,2.221-0.9,2.266-2.145H40.56v-1.74h4.05v5.475h-1.5v-1.11 c-0.869,0.96-1.68,1.26-2.819,1.26c-2.94,0-4.305-2.34-4.305-5.4c0-2.76,1.05-5.729,4.515-5.729c2.16,0,3.42,1.17,3.93,2.76 L42.51,18.352z"/></g><path fill="none" stroke="#F2F2F2" stroke-miterlimit="10" stroke-width="2" d="M50,41"/><path fill="none" stroke="#F2F2F2" stroke-miterlimit="10" stroke-width="2" d="M50,29"/><path fill="none" stroke="#F2F2F2" stroke-miterlimit="10" stroke-width="2" d="M56,40"/><path fill="none" stroke="#F2F2F2" stroke-miterlimit="10" stroke-width="2" d="M51,40"/><path fill="none" stroke="#F2F2F2" stroke-miterlimit="10" stroke-width="2.347" d="M47.875,50.125"/><g><g><line x1="45" x2="45" y1="32" y2="47" fill="none" stroke="#666" stroke-miterlimit="10" stroke-width="6"/><g><polygon fill="#666" points="53.09 46 36.324 46 44.707 54.381"/></g></g></g></g></svg>