<svg xmlns="http://www.w3.org/2000/svg" xmlns:svg="http://www.w3.org/2000/svg" id="svg2" width="100%" height="100%" x="0" y="0" enable-background="new 0 0 64 64" version="1.1" viewBox="0 0 64 64" xml:space="preserve"><metadata id="metadata77"/><g id="model" style="fill:#4d4d4d;fill-opacity:1;stroke:#4d4d4d;stroke-opacity:1"><g id="g3816" transform="translate(47.728813,-9.5367432e-7)"><rect style="fill:#4d4d4d;fill-opacity:1;stroke:none" id="rect5" width="24.375" height="17.375" x="-27.729" y="5.719"/><rect style="fill:#4d4d4d;fill-opacity:1;stroke:none" id="rect7" width="24.375" height="17.375" x="-45.416" y="40.907"/><rect style="fill:#4d4d4d;fill-opacity:1;stroke:none" id="rect9" width="24.375" height="17.375" x="-10.416" y="40.907"/><line style="fill:#4d4d4d;fill-opacity:1;stroke:#4d4d4d;stroke-width:5;stroke-miterlimit:10;stroke-opacity:1" id="line11" x1="-15.541" x2="-33.229" y1="14.406" y2="49.593" stroke-miterlimit="10"/><line style="fill:#4d4d4d;fill-opacity:1;stroke:#4d4d4d;stroke-width:5;stroke-miterlimit:10;stroke-opacity:1" id="line13" x1="1.771" x2="-15.541" y1="49.593" y2="14.406" stroke-miterlimit="10"/></g></g><g id="link" display="none"><rect id="rect16" width="42.716" height="30.449" x="10.642" y="16.776" fill="#E6E6E6" display="inline"/></g><g id="joint" display="none"><g id="g19" display="inline"><circle id="circle21" cx="26.24" cy="32.489" r="10.957" fill="#E6E6E6"/><line id="line23" x1="48.717" x2="26.24" y1="4.688" y2="32.489" fill="none" stroke="#E6E6E6" stroke-miterlimit="10" stroke-width="7.004"/><line id="line25" x1="48.717" x2="26.24" y1="59.312" y2="32.489" fill="none" stroke="#E6E6E6" stroke-miterlimit="10" stroke-width="7.004"/></g></g><g id="collision" display="none"><g id="g28" display="inline"><g id="g30"><line id="line32" x1="64" x2="49.045" y1="32" y2="32" fill="none" stroke="#E6E6E6" stroke-miterlimit="10" stroke-width="6"/><g id="g34"><polygon id="polygon36" fill="#E6E6E6" points="34.218 32 55.112 23.463 50.154 32 55.112 40.535"/></g></g></g><g id="g38" display="inline"><g id="g40"><line id="line42" x1="0" x2="14.955" y1="32" y2="32" fill="none" stroke="#E6E6E6" stroke-miterlimit="10" stroke-width="6"/><g id="g44"><polygon id="polygon46" fill="#E6E6E6" points="29.782 32 8.888 40.537 13.846 32 8.888 23.465"/></g></g></g><line id="line48" x1="32" x2="32" y1="22.875" y2="2.745" fill="none" stroke="#E6E6E6" stroke-linecap="round" stroke-miterlimit="10" stroke-width="3" display="inline"/><line id="line50" x1="26.966" x2="15.034" y1="22.404" y2="10.471" fill="none" stroke="#E6E6E6" stroke-linecap="round" stroke-miterlimit="10" stroke-width="3" display="inline"/><line id="line52" x1="37.034" x2="48.966" y1="22.404" y2="10.471" fill="none" stroke="#E6E6E6" stroke-linecap="round" stroke-miterlimit="10" stroke-width="3" display="inline"/><line id="line54" x1="32" x2="32" y1="41.399" y2="61.529" fill="none" stroke="#E6E6E6" stroke-linecap="round" stroke-miterlimit="10" stroke-width="3" display="inline"/><line id="line56" x1="37.034" x2="48.966" y1="41.87" y2="53.803" fill="none" stroke="#E6E6E6" stroke-linecap="round" stroke-miterlimit="10" stroke-width="3" display="inline"/><line id="line58" x1="26.966" x2="15.034" y1="41.87" y2="53.803" fill="none" stroke="#E6E6E6" stroke-linecap="round" stroke-miterlimit="10" stroke-width="3" display="inline"/></g><g id="visual" display="none"><g id="g61" display="inline"><path id="path63" fill="#E6E6E6" d="M15.272,41.268c-0.138-0.106-0.271-0.222-0.398-0.348l-3.127-3.127c-1.427-1.427-1.528-3.659-0.226-4.961 l21.453-21.453c1.302-1.302,3.534-1.2,4.961,0.226l3.127,3.127c0.134,0.134,0.256,0.275,0.367,0.422"/><path id="path65" fill="#E6E6E6" d="M31.858,31.716"/><path id="path67" fill="#E6E6E6" d="M32.506,32.365"/><path id="path69" fill="#E6E6E6" d="M12.055,6.257c-1.432-1.432-3.755-1.432-5.187,0L5.691,7.433c-1.432,1.432-1.432,3.755,0,5.187 l13.197,13.197c1.432,1.432,3.755,1.432,5.187,0l1.177-1.177c1.432-1.432,1.432-3.755,0-5.187L12.055,6.257z M11.277,12.056 c-1.025,1.025-2.688,1.025-3.713,0s-1.025-2.688,0-3.713c1.025-1.025,2.688-1.025,3.713,0S12.303,11.03,11.277,12.056z"/><polyline id="polyline71" fill="#E6E6E6" points="16.533 43.261 43.291 16.503 59.383 34.352 56.747 36.988 51.445 32.564 56.015 37.72 42.689 51.046 36.137 46.251 41.005 52.73 40.346 53.389 35.561 50.069 39.101 54.634 34.918 58.817"/></g></g></svg>